<svg width="21" height="23" viewBox="0 0 21 23" fill="none" xmlns="http://www.w3.org/2000/svg">
<g opacity="0.8">
<path d="M10.4045 0C9.02482 0 7.7016 0.452556 6.72598 1.25811C5.75037 2.06366 5.20227 3.15623 5.20227 4.29545H0V5.72727V21.4773V22.9091H20.8091V21.4773V5.72727V4.29545H15.6068C15.6068 3.15623 15.0587 2.06366 14.0831 1.25811C13.1075 0.452556 11.7843 0 10.4045 0ZM10.4045 1.43182C11.3244 1.43182 12.2065 1.73352 12.8569 2.27056C13.5073 2.80759 13.8727 3.53597 13.8727 4.29545H6.93636C6.93636 3.53597 7.30176 2.80759 7.95217 2.27056C8.60258 1.73352 9.48473 1.43182 10.4045 1.43182ZM1.73409 5.72727H5.20227V7.28493C4.69572 7.43281 4.25706 7.70657 3.94655 8.06861C3.63605 8.43065 3.46894 8.86319 3.46818 9.30682C3.46818 9.87643 3.74223 10.4227 4.23004 10.8255C4.71784 11.2283 5.37945 11.4545 6.06932 11.4545C6.75918 11.4545 7.42079 11.2283 7.9086 10.8255C8.39641 10.4227 8.67045 9.87643 8.67045 9.30682C8.6697 8.86319 8.50259 8.43065 8.19209 8.06861C7.88158 7.70657 7.44291 7.43281 6.93636 7.28493V5.72727H13.8727V7.28493C13.3662 7.43281 12.9275 7.70657 12.617 8.06861C12.3065 8.43065 12.1394 8.86319 12.1386 9.30682C12.1386 9.87643 12.4127 10.4227 12.9005 10.8255C13.3883 11.2283 14.0499 11.4545 14.7398 11.4545C15.4296 11.4545 16.0912 11.2283 16.5791 10.8255C17.0669 10.4227 17.3409 9.87643 17.3409 9.30682C17.3402 8.86319 17.173 8.43065 16.8625 8.06861C16.552 7.70657 16.1134 7.43281 15.6068 7.28493V5.72727H19.075V21.4773H1.73409V5.72727ZM6.06932 8.59091C6.29927 8.59091 6.51981 8.66634 6.68241 8.80059C6.84502 8.93485 6.93636 9.11695 6.93636 9.30682C6.93636 9.49669 6.84502 9.67878 6.68241 9.81304C6.51981 9.9473 6.29927 10.0227 6.06932 10.0227C5.83936 10.0227 5.61883 9.9473 5.45622 9.81304C5.29362 9.67878 5.20227 9.49669 5.20227 9.30682C5.20227 9.11695 5.29362 8.93485 5.45622 8.80059C5.61883 8.66634 5.83936 8.59091 6.06932 8.59091ZM14.7398 8.59091C14.9697 8.59091 15.1903 8.66634 15.3529 8.80059C15.5155 8.93485 15.6068 9.11695 15.6068 9.30682C15.6068 9.49669 15.5155 9.67878 15.3529 9.81304C15.1903 9.9473 14.9697 10.0227 14.7398 10.0227C14.5098 10.0227 14.2893 9.9473 14.1267 9.81304C13.9641 9.67878 13.8727 9.49669 13.8727 9.30682C13.8727 9.11695 13.9641 8.93485 14.1267 8.80059C14.2893 8.66634 14.5098 8.59091 14.7398 8.59091Z" fill="#232629"/>
</g>
</svg>
